<?xml version="1.0" encoding="utf-8"?>
<!-- Generator: Adobe Illustrator 17.0.0, SVG Export Plug-In . SVG Version: 6.00 Build 0)  -->
<!DOCTYPE svg PUBLIC "-//W3C//DTD SVG 1.1//EN" "http://www.w3.org/Graphics/SVG/1.1/DTD/svg11.dtd">
<svg version="1.1" id="Capa_1" xmlns="http://www.w3.org/2000/svg" xmlns:xlink="http://www.w3.org/1999/xlink" x="0px" y="0px"
	 width="106.059px" height="106.059px" viewBox="0 0 106.059 106.059" enable-background="new 0 0 106.059 106.059"
	 xml:space="preserve">
<g>
	<circle fill="#EF8A45" cx="53.112" cy="53.54" r="49.78"/>
	<path d="M90.546,15.518c-20.688-20.69-54.347-20.69-75.031-0.005C-5.173,36.198-5.171,69.858,15.517,90.547
		c20.682,20.684,54.341,20.684,75.027-0.004C111.23,69.858,111.229,36.2,90.546,15.518z M84.757,84.758
		c-17.494,17.494-45.96,17.496-63.455,0.002c-17.498-17.497-17.496-45.966,0-63.46C38.796,3.807,67.261,3.805,84.759,21.302
		C102.253,38.796,102.251,67.265,84.757,84.758z M33.24,38.671c0-3.424,2.777-6.201,6.201-6.201c3.423,0,6.2,2.776,6.2,6.201
		c0,3.426-2.777,6.202-6.2,6.202C36.017,44.873,33.24,42.097,33.24,38.671z M61.357,38.671c0-3.424,2.779-6.201,6.203-6.201
		c3.423,0,6.2,2.776,6.2,6.201c0,3.426-2.776,6.202-6.2,6.202S61.357,42.097,61.357,38.671z"/>
</g>
<line fill="none" stroke="#000000" stroke-width="7" stroke-linecap="round" stroke-miterlimit="10" x1="27.947" y1="70.211" x2="78.277" y2="70.211"/>
</svg>
